#!OML:ASF C:\Vicon Data\Big\jianyuan-13\jianyuan\Session 1\Capture.male.ASF
:FULLY-SPECIFIED
:DEGREES
153
root -6.823705 16.749605 -8.445510 11.422929 3.150943 1.761555
lowerback -10.508544 3.169096 -3.627298 
upperback 2.535076 4.911467 -1.586235 
thorax 8.437463 2.263650 1.210998 
lowerneck -0.905089 -3.729925 3.639150 
upperneck 9.734655 -5.318987 -2.122738 
head 3.123434 -2.724856 -1.478316 
rclavicle 0.000000 0.000000 
rhumerus -29.731418 -8.219611 -86.893954 
rradius 45.652422 
rwrist 17.737705 
rhand -18.147996 -18.490749 
rfingers 0.000000 
rthumb 8.127471 -48.314417 
lclavicle 0.000000 0.000000 
lhumerus -47.664831 34.503647 62.890409 
lradius 26.127016 
lwrist -56.509750 
lhand -19.255043 1.076155 
lfingers 0.000000 
lthumb 7.058933 30.938476 
rfemur -7.510405 -2.888244 16.292139 
rtibia 54.932823 
rfoot 1.659752 6.826077 
rtoes -42.248169 
lfemur -44.038753 -2.467442 -22.338596 
ltibia 35.262092 
lfoot -4.660227 2.713303 
ltoes -19.548481 
154
root -6.781900 16.766865 -8.334008 11.428672 3.050602 1.952475
lowerback -10.292262 3.156722 -3.834934 
upperback 2.568905 4.916022 -1.589865 
thorax 8.332439 2.259529 1.309859 
lowerneck -0.844481 -3.727373 3.573380 
upperneck 9.658555 -5.309204 -2.107073 
head 3.088146 -2.721267 -1.457623 
rclavicle 0.000000 0.000000 
rhumerus -29.726599 -8.562139 -86.656350 
rradius 45.032734 
rwrist 18.169144 
rhand -18.111666 -18.545966 
rfingers 0.000000 
rthumb 8.162543 -48.368284 
lclavicle 0.000000 0.000000 
lhumerus -47.294546 34.513358 63.400225 
lradius 26.245985 
lwrist -55.850193 
lhand -19.290835 0.779066 
lfingers 0.000000 
lthumb 7.024367 30.642539 
rfemur -9.176014 -3.281454 15.791741 
rtibia 57.607744 
rfoot 2.668792 6.721529 
rtoes -43.394326 
lfemur -43.647429 -2.436375 -22.719856 
ltibia 35.395628 
lfoot -5.049062 2.438201 
ltoes -19.484931 
155
root -6.738952 16.788502 -8.218597 11.455082 2.953127 2.127261
lowerback -10.137718 3.143832 -4.005619 
upperback 2.622575 4.920694 -1.611590 
thorax 8.289423 2.256209 1.373969 
lowerneck -0.915173 -3.704466 3.611685 
upperneck 9.671181 -5.277570 -2.144373 
head 3.104880 -2.704781 -1.478218 
rclavicle 0.000000 0.000000 
rhumerus -29.649171 -8.943931 -86.470177 
rradius 44.368279 
rwrist 18.394128 
rhand -18.303833 -18.724399 
rfingers 0.000000 
rthumb 7.977106 -48.553852 
lclavicle 0.000000 0.000000 
lhumerus -46.742602 34.470230 64.038447 
lradius 26.314144 
lwrist -55.365588 
lhand -19.402847 1.093975 
lfingers 0.000000 
lthumb 6.916297 30.960945 
rfemur -11.044221 -3.606806 15.349403 
rtibia 60.412858 
rfoot 3.568275 6.153007 
rtoes -44.017466 
lfemur -43.227627 -2.420865 -23.072528 
ltibia 35.463141 
lfoot -5.408218 2.170126 
ltoes -19.327163 
156
root -6.695126 16.815329 -8.097491 11.418764 2.801405 2.296583
lowerback -9.945440 3.124787 -4.169308 
upperback 2.688276 4.913503 -1.625340 
thorax 8.238007 2.247524 1.438587 
lowerneck -0.930807 -3.672689 3.561162 
upperneck 9.655357 -5.234462 -2.117106 
head 3.105565 -2.683775 -1.459674 
rclavicle 0.000000 0.000000 
rhumerus -29.589311 -9.308237 -86.238798 
rradius 43.777605 
rwrist 18.648605 
rhand -18.230104 -18.732791 
rfingers 0.000000 
rthumb 8.048251 -48.559526 
lclavicle 0.000000 0.000000 
lhumerus -46.138516 34.299387 64.784660 
lradius 26.397318 
lwrist -54.722988 
lhand -19.659159 1.154954 
lfingers 0.000000 
lthumb 6.668848 31.029978 
rfemur -12.987355 -3.859448 14.933241 
rtibia 63.371354 
rfoot 4.013499 5.147164 
rtoes -43.741434 
lfemur -42.654313 -2.457190 -23.363026 
ltibia 35.450077 
lfoot -5.842832 1.952068 
ltoes -18.709357 
157
root -6.652428 16.842340 -7.977965 11.433662 2.745081 2.428828
lowerback -9.814810 3.061107 -4.338068 
upperback 2.731044 4.844867 -1.605649 
thorax 8.197055 2.206788 1.534763 
lowerneck -0.904455 -3.640555 3.586472 
upperneck 9.607549 -5.186318 -2.156033 
head 3.084231 -2.660173 -1.473527 
rclavicle 0.000000 0.000000 
rhumerus -29.501633 -9.873997 -86.038475 
rradius 43.058246 
rwrist 19.085796 
rhand -18.469259 -18.680459 
rfingers 0.000000 
rthumb 7.817438 -48.515935 
lclavicle 0.000000 0.000000 
lhumerus -45.536584 34.221514 65.463149 
lradius 26.462961 
lwrist -54.422844 
lhand -19.590503 0.986377 
lfingers 0.000000 
lthumb 6.735136 30.859274 
rfemur -15.107103 -4.277314 14.605758 
rtibia 66.414043 
rfoot 3.622406 3.720138 
rtoes -42.916611 
lfemur -42.130278 -2.416155 -23.673305 
ltibia 35.373002 
lfoot -6.067643 1.643633 
ltoes -19.168860 
